<?xml version="1.0" standalone="no"?>
<!DOCTYPE svg PUBLIC "-//W3C//DTD SVG 20010904//EN"
 "http://www.w3.org/TR/2001/REC-SVG-20010904/DTD/svg10.dtd">
<svg version="1.0" xmlns="http://www.w3.org/2000/svg"
 width="64.000000pt" height="64.000000pt" viewBox="0 0 64.000000 64.000000"
 preserveAspectRatio="xMidYMid meet">

<g transform="translate(0.000000,64.000000) scale(0.100000,-0.100000)"
fill="#000000" stroke="none">
<path d="M90 553 c-83 -77 -84 -74 6 -164 l78 -79 -61 -62 c-61 -63 -61 -63
-68 -136 l-6 -73 73 6 c73 7 73 7 136 68 l62 61 78 -77 c42 -42 81 -77 85 -77
7 0 72 63 111 108 l20 23 -78 78 c-74 75 -87 101 -48 101 20 0 72 49 72 68 0
8 11 27 25 44 14 16 25 34 25 39 0 15 -101 119 -116 119 -7 0 -26 -11 -42 -25
-17 -14 -36 -25 -43 -25 -20 0 -78 -61 -73 -75 3 -7 0 -16 -6 -20 -7 -5 -42
22 -89 69 -42 42 -80 76 -83 76 -4 0 -30 -21 -58 -47z m60 2 c-8 -9 -8 -15 -2
-15 6 0 14 5 17 10 5 8 11 7 21 -1 13 -10 12 -15 -7 -36 -26 -26 -15 -32 13
-6 24 22 49 3 28 -22 -8 -9 -8 -15 -2 -15 6 0 14 5 17 10 5 8 11 7 21 -1 13
-10 12 -15 -7 -36 -25 -26 -15 -32 12 -7 10 9 23 13 29 9 8 -5 -8 -28 -46 -66
l-58 -59 -73 72 c-40 40 -73 77 -73 82 0 19 104 116 114 106 6 -6 4 -15 -4
-25z m388 -18 c48 -49 51 -61 20 -94 l-22 -23 -58 57 -58 57 22 23 c30 33 48
29 96 -20z m-30 -170 l-30 -30 -70 71 -71 70 29 30 29 30 72 -70 72 -71 -31
-30z m-108 28 l55 -55 -130 -130 c-71 -72 -133 -130 -137 -130 -5 0 -8 10 -8
23 0 15 27 49 80 102 44 44 80 84 80 90 0 5 -40 -30 -88 -79 -84 -83 -90 -87
-106 -70 -17 16 -14 21 55 90 41 41 69 74 63 74 -5 0 -39 -29 -74 -65 -42 -42
-72 -65 -87 -65 -13 0 -23 3 -23 7 0 9 252 263 260 263 3 0 30 -25 60 -55z
m64 -167 l-19 -23 22 19 c19 15 25 17 38 6 12 -10 13 -16 3 -29 -11 -14 -11
-14 3 -3 13 10 19 9 29 -3 11 -13 9 -19 -6 -38 l-19 -22 22 19 c19 16 25 17
38 6 14 -12 10 -20 -37 -67 -29 -29 -57 -53 -62 -53 -6 0 -43 33 -83 72 l-73
72 57 58 57 58 25 -25 c25 -24 25 -24 5 -47z m-339 -77 c3 -11 14 -23 24 -26
11 -3 21 -18 23 -35 4 -30 4 -30 -42 -30 -57 0 -70 12 -70 67 0 41 1 43 29 43
21 0 32 -6 36 -19z"/>
<path d="M300 355 c-20 -24 -6 -28 15 -5 10 11 13 20 8 20 -6 0 -16 -7 -23
-15z"/>
</g>
</svg>
